<svg xmlns="http://www.w3.org/2000/svg" width="131.429" height="100" viewBox="0 0 131.429 100"><g transform="translate(-1012 -2115)"><circle cx="35.714" cy="35.714" r="35.714" transform="translate(1072 2143.572)" fill="#feecee"/><g transform="translate(1012 2115)"><path d="M168.308,184.077a7.692,7.692,0,0,0-7.692-7.692,7.692,7.692,0,0,0,0-15.385H83.692a7.692,7.692,0,1,0,0,15.385,7.692,7.692,0,1,0,0,15.385,7.692,7.692,0,1,0,0,15.385,7.692,7.692,0,1,0,0,15.385h76.923a7.692,7.692,0,0,0,0-15.385,7.692,7.692,0,0,0,0-15.385A7.692,7.692,0,0,0,168.308,184.077Z" transform="translate(-56.513 -135.359)" fill="#f12441"/><path d="M136.154,401v5.128a5.127,5.127,0,0,1-5.128,5.128H15.128A5.127,5.127,0,0,1,10,406.128V401Z" transform="translate(-7.436 -313.82)" fill="#f12441"/><path d="M212.154,184.077a7.692,7.692,0,0,1-15.385,0,7.692,7.692,0,1,0-15.385,0v15.385a7.692,7.692,0,0,1-15.385,0V161h46.154Z" transform="translate(-123.436 -135.359)" fill="#fff8f0"/><path d="M204.462,78.692A15.339,15.339,0,0,0,193.887,82.9,23.078,23.078,0,0,0,173.692,71H166a23.076,23.076,0,0,0,23.077,23.077h7.692a15.382,15.382,0,0,0,15.385-15.385Z" transform="translate(-123.436 -68.436)" fill="#f12441"/><circle cx="2.564" cy="2.564" r="2.564" transform="translate(63.077 94.872)" fill="#262d37"/><path d="M128.718,145.615H112.986a10.246,10.246,0,0,0-2.11-12.821,10.235,10.235,0,0,0,0-15.385,10.235,10.235,0,0,0,0-15.382A10.254,10.254,0,0,0,104.1,84.077H85.892c.045-.044.091-.085.135-.129a17.84,17.84,0,0,0,5.255-12.692,2.564,2.564,0,0,0-2.564-2.564H81.026a17.874,17.874,0,0,0-9.937,3A25.675,25.675,0,0,0,50.256,61H42.564A2.564,2.564,0,0,0,40,63.564,25.618,25.618,0,0,0,50.273,84.077H27.179a10.25,10.25,0,0,0-6.773,17.949,10.235,10.235,0,0,0,0,15.385,10.235,10.235,0,0,0,0,15.382,10.237,10.237,0,0,0-2.1,12.823H2.564A2.564,2.564,0,0,0,0,148.18v5.128A7.7,7.7,0,0,0,7.692,161H54.1a2.564,2.564,0,1,0,0-5.128H7.692a2.567,2.567,0,0,1-2.564-2.564v-2.564H126.154v2.564a2.567,2.567,0,0,1-2.564,2.564H77.18a2.564,2.564,0,1,0,0,5.128h46.41a7.7,7.7,0,0,0,7.692-7.692V148.18A2.564,2.564,0,0,0,128.718,145.615Zm-47.692-71.8H85.9A12.821,12.821,0,0,1,73.333,84.077H68.46A12.827,12.827,0,0,1,81.026,73.818Zm-35.738-7.69h4.969a20.545,20.545,0,0,1,16.987,9.016,17.776,17.776,0,0,0-3.965,8.792A20.552,20.552,0,0,1,45.288,66.128Zm-.159,23.077H86.154v20.513a5.128,5.128,0,0,1-10.256,0,10.256,10.256,0,0,0-20.513,0V125.1a5.128,5.128,0,1,1-10.256,0Zm27.014,25.641H60.513v-5.128a5.128,5.128,0,0,1,10.256,0A10.188,10.188,0,0,0,72.142,114.846ZM27.179,89.205H40V99.462H27.179a5.128,5.128,0,0,1,0-10.256Zm0,15.385H40v10.256H27.179a5.128,5.128,0,1,1,0-10.256Zm0,15.385H40V125.1a10.188,10.188,0,0,0,1.38,5.128h-14.2a5.128,5.128,0,0,1,0-10.256ZM104.1,145.615H27.179a5.128,5.128,0,0,1,0-10.256H104.1a5.128,5.128,0,0,1,0,10.256Zm0-15.385H59.14a10.188,10.188,0,0,0,1.373-5.128v-5.128H104.1a5.128,5.128,0,0,1,0,10.256Zm0-15.385H89.909a10.188,10.188,0,0,0,1.373-5.128V104.59H104.1a5.128,5.128,0,1,1,0,10.256Zm0-15.385H91.282V89.205H104.1a5.128,5.128,0,0,1,0,10.256Z" transform="translate(0 -61)" fill="#262d37"/></g></g></svg>