<svg xmlns="http://www.w3.org/2000/svg" width="41.924" height="39.02" viewBox="0 0 41.924 39.02">
  <path id="hot-pancakes" d="M0,26.4c0-4.888,6.99-8.87,16.793-9.682l-.034-.051a7.816,7.816,0,0,1-1.091-5.559,1.108,1.108,0,1,1,2.175.419,5.569,5.569,0,0,0,.756,3.906c1.425,2.125,1.728,5.924-.115,7.979a1.108,1.108,0,1,1-1.649-1.479,4.063,4.063,0,0,0,.687-3.049,29.668,29.668,0,0,0-11.018,2.7c-2.767,1.4-4.29,3.112-4.29,4.818,0,1.842,1.823,3.722,5,5.158a32.993,32.993,0,0,0,13.2,2.457,32.992,32.992,0,0,0,13.2-2.457c3.18-1.437,5-3.317,5-5.158,0-2.681-3.915-5.377-9.743-6.709a1.108,1.108,0,1,1,.493-2.16,22.619,22.619,0,0,1,8.061,3.338c2.227,1.6,3.4,3.515,3.4,5.53,0,2.791-2.24,5.34-6.306,7.177a35.227,35.227,0,0,1-14.107,2.653A35.226,35.226,0,0,1,6.306,33.575C2.239,31.738,0,29.189,0,26.4Zm22.344-4.467a1.108,1.108,0,1,0,1.649,1.479c1.842-2.055,1.539-5.854.114-7.979a5.567,5.567,0,0,1-.756-3.906,1.108,1.108,0,1,0-2.175-.42,7.813,7.813,0,0,0,1.091,5.56C23.3,18.21,23.341,20.819,22.344,21.931ZM24.852,25.9a1.108,1.108,0,1,0,0,2.215h.184a1.108,1.108,0,1,0,0-2.215Zm-8.2,2.2a1.108,1.108,0,0,0,0,2.215h.184a1.108,1.108,0,0,0,0-2.215ZM38.936,40.953c-3.019,3.014-10.463,5.039-18.523,5.039S4.909,43.968,1.89,40.953A1.108,1.108,0,1,0,.325,42.521c3.46,3.455,11.345,5.687,20.088,5.687S37.042,45.975,40.5,42.521a1.108,1.108,0,1,0-1.565-1.568ZM20.413,42.218c8.743,0,16.628-2.232,20.088-5.687a1.108,1.108,0,0,0-1.565-1.568C35.918,37.977,28.474,40,20.413,40S4.909,37.978,1.89,34.963A1.108,1.108,0,1,0,.325,36.531C3.785,39.986,11.67,42.218,20.413,42.218ZM33.534,27.383a1.108,1.108,0,0,0,0-2.215H33.35a1.108,1.108,0,0,0,0,2.215ZM9.486,23.9a1.108,1.108,0,1,0,0,2.215H9.67a1.108,1.108,0,1,0,0-2.215Z" transform="translate(0.597 -9.688)" fill="#262d37" stroke="#fff" stroke-width="1"/>
</svg>