<svg xmlns="http://www.w3.org/2000/svg" width="100" height="100" viewBox="0 0 100 100"><g transform="translate(-678 -2115)"><circle cx="35.714" cy="35.714" r="35.714" transform="translate(706.571 2115)" fill="#feecee"/><g transform="translate(678 2115)"><path d="M37.931,49.357C37.931,36.026,29.44,22,18.966,22S0,36.026,0,49.357c0,10.69,5.464,17.674,13.028,20.026a3.474,3.474,0,0,1,2.49,3.307v9.655a1.724,1.724,0,0,0,1.724,1.724H20.69a1.724,1.724,0,0,0,1.724-1.724V72.69a3.474,3.474,0,0,1,2.49-3.3C32.467,67.031,37.931,60.045,37.931,49.357Z" transform="translate(0 15.931)" fill="#262d37"/><path d="M73.931,49.357C73.931,36.026,65.44,22,54.966,22S36,36.026,36,49.357c0,10.69,5.464,17.674,13.028,20.026a3.474,3.474,0,0,1,2.49,3.307v9.655a1.724,1.724,0,0,0,1.724,1.724H56.69a1.724,1.724,0,0,0,1.724-1.724V72.69a3.474,3.474,0,0,1,2.49-3.3C68.467,67.031,73.931,60.045,73.931,49.357Z" transform="translate(26.069 15.931)" fill="#262d37"/><path d="M55.931,27.357C55.931,14.026,47.44,0,36.966,0S18,14.026,18,27.357c0,10.69,5.464,17.674,13.028,20.026a3.474,3.474,0,0,1,2.49,3.307V98.276A1.724,1.724,0,0,0,35.241,100H38.69a1.724,1.724,0,0,0,1.724-1.724V50.69a3.474,3.474,0,0,1,2.49-3.3C50.467,45.031,55.931,38.045,55.931,27.357Z" transform="translate(13.034)" fill="#262d37"/><path d="M34.069,38.483C26.495,38.548,22,32.966,22,24.466,22,13.633,28.75,4,34.069,4s12.069,9.633,12.069,20.46C46.138,32.966,41.643,38.414,34.069,38.483Z" transform="translate(15.931 2.897)" fill="#f12441"/><path d="M52.069,60.483C44.495,60.548,40,54.966,40,46.466,40,35.633,46.75,26,52.069,26s12.069,9.633,12.069,20.46C64.138,54.966,59.643,60.414,52.069,60.483Z" transform="translate(28.966 18.828)" fill="#fff8f0"/><path d="M27.543,41.776a6.366,6.366,0,0,0-7.017,1.466c-1.845,1.724-5.5,3.448-11,0A8.9,8.9,0,0,0,4.25,41.724C5.8,32.983,11.353,26,15.888,26S25.991,33,27.543,41.776Z" transform="translate(3.078 18.828)" fill="#f12441"/><path d="M28.138,40.043c0,8.5-4.5,13.948-12.069,14.017S4,48.543,4,40.043A26.793,26.793,0,0,1,4.431,35.3a8.9,8.9,0,0,1,5.276,1.517c5.5,3.448,9.155,1.724,11,0a6.365,6.365,0,0,1,7.017-1.466A27.905,27.905,0,0,1,28.138,40.043Z" transform="translate(2.897 25.25)" fill="#f12441"/><g transform="translate(44.828 12.069)"><circle cx="1.724" cy="1.724" r="1.724" transform="translate(8.621 8.621)" fill="#fff8f0"/><circle cx="1.724" cy="1.724" r="1.724" transform="translate(0 6.897)" fill="#fff8f0"/><circle cx="1.724" cy="1.724" r="1.724" transform="translate(3.448 13.793)" fill="#fff8f0"/><circle cx="1.724" cy="1.724" r="1.724" transform="translate(6.897 20.69)" fill="#fff8f0"/><circle cx="1.724" cy="1.724" r="1.724" transform="translate(0 18.966)" fill="#fff8f0"/><circle cx="1.724" cy="1.724" r="1.724" transform="translate(3.448)" fill="#fff8f0"/></g><path d="M46.749,35.173A1.745,1.745,0,0,1,45,33.449,3.378,3.378,0,0,1,48.449,30a1.724,1.724,0,0,1,.048,3.448A1.745,1.745,0,0,1,46.749,35.173Z" transform="translate(32.586 21.724)" fill="#f12441"/><path d="M44.749,40.173A1.745,1.745,0,0,1,43,38.449,3.378,3.378,0,0,1,46.449,35a1.724,1.724,0,0,1,.048,3.448A1.745,1.745,0,0,1,44.749,40.173Z" transform="translate(31.138 25.345)" fill="#f12441"/><path d="M46.749,45.173A1.745,1.745,0,0,1,45,43.449,3.378,3.378,0,0,1,48.449,40a1.724,1.724,0,0,1,.048,3.448A1.745,1.745,0,0,1,46.749,45.173Z" transform="translate(32.586 28.965)" fill="#f12441"/><path d="M51.448,41.173a1.724,1.724,0,0,1-1.724-1.724,1.724,1.724,0,0,1,0-3.448,3.378,3.378,0,0,1,3.448,3.448A1.724,1.724,0,0,1,51.448,41.173Z" transform="translate(34.759 26.069)" fill="#f12441"/></g></g></svg>