<svg xmlns="http://www.w3.org/2000/svg" width="100" height="100" viewBox="0 0 100 100"><g transform="translate(-1316 -2115)"><circle cx="35.714" cy="35.714" r="35.714" transform="translate(1316 2143.572)" fill="#feecee"/><g transform="translate(1316 2115)"><path d="M187.766,165.9l-9.221,9.221a8.115,8.115,0,0,1-3.449-2.076,8.692,8.692,0,0,1-2.357-5.789,8.287,8.287,0,0,0-8.287-8.287,8.287,8.287,0,0,1-8.287-8.286,8.285,8.285,0,0,0-8.285-8.287,8.636,8.636,0,0,1-5.926-2.5,8.144,8.144,0,0,1-2-3.523l9.147-9.146Zm0,0" transform="translate(-112.616 -102.381)" fill="#fff8f0"/><path d="M226.58,10,200.922,35.658v0L234.066,68.8h0l25.658-25.658Zm0,0" transform="translate(-161.679 -8.047)" fill="#f12441"/><path d="M43.147,252.626,10,219.479,37.383,192.1h0a8.637,8.637,0,0,0,5.926,2.5,8.285,8.285,0,0,1,8.285,8.287,8.287,8.287,0,0,0,8.287,8.286,8.287,8.287,0,0,1,8.287,8.287,8.692,8.692,0,0,0,2.357,5.789l-27.38,27.383Zm0,0" transform="translate(-8.047 -154.579)" fill="#f12441"/><path d="M162.041,287.192a4.8,4.8,0,0,1-.008,6.912c-2.6,2.6-7.144,1.5-14.494.684-.819-7.371-1.91-11.9.684-14.494a4.8,4.8,0,0,1,6.911-.008c2.625,2.625.692,6.215.692,6.215S159.416,284.568,162.041,287.192Zm0,0" transform="translate(-117.965 -224.363)" fill="#fff8f0"/><path d="M57.14,322.866a1.954,1.954,0,1,0,2.762,0A1.954,1.954,0,0,0,57.14,322.866Zm0,0" transform="translate(-45.519 -259.347)" fill="#262d37"/><path d="M137.572,286.953a1.953,1.953,0,0,0,1.726,1.726c7.175.8,12.673,2.173,16.09-1.244a6.749,6.749,0,0,0,.008-9.674,6.552,6.552,0,0,0-4.947-1.959,6.569,6.569,0,0,0-1.96-4.947,6.747,6.747,0,0,0-9.674.008c-3.349,3.349-2.083,8.53-1.244,16.091Zm4.006-13.329a2.842,2.842,0,0,1,4.15-.008c1.52,1.52.47,3.681.353,3.908a1.95,1.95,0,0,0,2.631,2.653c.242-.124,2.4-1.174,3.922.346a2.845,2.845,0,0,1-.008,4.15c-1.759,1.759-5.914.956-11.351.3C140.56,279.024,139.9,275.3,141.578,273.625Zm0,0" transform="translate(-109.939 -216.312)" fill="#262d37"/><path d="M66.281.572a1.952,1.952,0,0,0-2.762,0L39.242,24.849l-1.381-1.38a1.952,1.952,0,0,0-2.762,0l-9.147,9.146a1.952,1.952,0,0,0-.5,1.91,10.325,10.325,0,0,0,1.274,2.84L.572,63.519a1.952,1.952,0,0,0,0,2.762L33.718,99.428a1.952,1.952,0,0,0,2.762,0L42,93.908l0,0,0,0,20.6-20.6a10.288,10.288,0,0,0,2.747,1.307,1.953,1.953,0,0,0,1.957-.485l9.22-9.22a1.953,1.953,0,0,0,0-2.763l-1.38-1.38L99.427,36.481a1.953,1.953,0,0,0,0-2.763ZM35.1,95.284,4.715,64.9,29.461,40.157a10.953,10.953,0,0,0,5.713,1.81A6.343,6.343,0,0,1,41.6,48.393,10.237,10.237,0,0,0,51.746,58.539a6.343,6.343,0,0,1,6.425,6.425,11.02,11.02,0,0,0,1.7,5.547L40.622,89.761,19.906,69.045a1.953,1.953,0,0,0-2.763,2.763L37.861,92.523ZM65.455,70.452A5.925,5.925,0,0,1,63.878,69.3a6.764,6.764,0,0,1-1.8-4.515A10.238,10.238,0,0,0,51.925,54.637,6.343,6.343,0,0,1,45.5,48.212,10.237,10.237,0,0,0,35.353,38.065a6.714,6.714,0,0,1-4.619-1.91,5.953,5.953,0,0,1-1.14-1.656l6.886-6.886c.964.965-2.486-2.483,35.908,35.908Zm1.408-17.979-8.295-8.294,6.668-6.726,8.323,8.323Zm9.458-9.46-8.334-8.334,7.88-7.948L84.235,35.1Zm-11.1-11.1-8.239-8.239L64.9,15.764l8.205,8.2Zm-11-5.476,8.25,8.25-6.667,6.725-8.279-8.279ZM72.387,58l-2.76-2.762L88.379,36.481a1.953,1.953,0,0,0,0-2.763l-22.1-22.1a1.954,1.954,0,0,0-2.762,0c-3.851,3.852-15.185,15.187-18.753,18.755L42,27.612l22.9-22.9L95.284,35.1Zm0,0" transform="translate(0 0)" fill="#262d37"/></g></g></svg>