<svg xmlns="http://www.w3.org/2000/svg" width="37.755" height="39.205" viewBox="0 0 37.755 39.205">
  <g id="discount" transform="translate(0.646 0.705)">
    <g id="Group_24811" data-name="Group 24811" transform="translate(0 0)">
      <g id="Group_24810" data-name="Group 24810">
        <path id="Path_30604" data-name="Path 30604" d="M45.063,19.49a1.114,1.114,0,0,1,0-.984l1.417-2.9a3.3,3.3,0,0,0-1.423-4.381L42.206,9.714a1.114,1.114,0,0,1-.579-.8L41.07,5.739a3.3,3.3,0,0,0-3.726-2.707l-3.2.452a1.114,1.114,0,0,1-.936-.3L30.893.935a3.3,3.3,0,0,0-4.606,0L23.968,3.179a1.114,1.114,0,0,1-.936.3l-3.2-.452A3.3,3.3,0,0,0,16.11,5.739l-.558,3.179a1.114,1.114,0,0,1-.579.8l-2.851,1.513A3.3,3.3,0,0,0,10.7,15.607l1.417,2.9a1.114,1.114,0,0,1,0,.984L10.7,22.39a3.3,3.3,0,0,0,1.423,4.381l2.851,1.513a1.114,1.114,0,0,1,.579.8l.558,3.179A3.3,3.3,0,0,0,19.362,35a3.389,3.389,0,0,0,.475-.034l3.2-.452a1.113,1.113,0,0,1,.936.3l2.319,2.244a3.3,3.3,0,0,0,4.606,0l2.319-2.244a1.115,1.115,0,0,1,.936-.3l3.2.452a3.3,3.3,0,0,0,3.726-2.707l.558-3.179a1.114,1.114,0,0,1,.579-.8l2.851-1.513A3.3,3.3,0,0,0,46.48,22.39ZM44.03,24.834l-2.851,1.513a3.291,3.291,0,0,0-1.71,2.354l-.558,3.179a1.116,1.116,0,0,1-1.261.916l-3.2-.452a3.29,3.29,0,0,0-2.767.9l-2.319,2.244a1.116,1.116,0,0,1-1.558,0l-2.319-2.244a3.288,3.288,0,0,0-2.3-.932,3.364,3.364,0,0,0-.472.033l-3.2.452a1.116,1.116,0,0,1-1.261-.916L17.711,28.7A3.291,3.291,0,0,0,16,26.347L13.15,24.834a1.116,1.116,0,0,1-.482-1.482l1.417-2.9a3.291,3.291,0,0,0,0-2.909l-1.417-2.9a1.116,1.116,0,0,1,.482-1.482L16,11.65A3.291,3.291,0,0,0,17.711,9.3l.558-3.179A1.116,1.116,0,0,1,19.529,5.2l3.2.452a3.291,3.291,0,0,0,2.767-.9l2.319-2.244a1.116,1.116,0,0,1,1.558,0l2.319,2.244a3.291,3.291,0,0,0,2.767.9l3.2-.452a1.116,1.116,0,0,1,1.261.916L39.469,9.3a3.291,3.291,0,0,0,1.71,2.354l2.851,1.513a1.116,1.116,0,0,1,.482,1.482l-1.417,2.9a3.291,3.291,0,0,0,0,2.909l1.417,2.9A1.116,1.116,0,0,1,44.03,24.834Z" transform="translate(-10.359 0.002)" fill="#262d37" stroke="#fff" stroke-width="1"/>
      </g>
    </g>
    <g id="Group_24813" data-name="Group 24813" transform="translate(9.903 10.672)">
      <g id="Group_24812" data-name="Group 24812">
        <path id="Path_30605" data-name="Path 30605" d="M160.126,144.112a1.1,1.1,0,0,0-1.55,0l-14.464,14.464a1.1,1.1,0,1,0,1.55,1.55l14.464-14.464A1.1,1.1,0,0,0,160.126,144.112Z" transform="translate(-143.791 -143.791)" fill="#262d37" stroke="#fff" stroke-width="1"/>
      </g>
    </g>
    <g id="Group_24815" data-name="Group 24815" transform="translate(9.83 9.138)">
      <g id="Group_24814" data-name="Group 24814">
        <path id="Path_30606" data-name="Path 30606" d="M146.82,123.116a4.018,4.018,0,1,0,4.018,4.018A4.023,4.023,0,0,0,146.82,123.116Zm0,5.844a1.826,1.826,0,1,1,1.826-1.826A1.828,1.828,0,0,1,146.82,128.96Z" transform="translate(-142.802 -123.116)" fill="#262d37" stroke="#fff" stroke-width="1"/>
      </g>
    </g>
    <g id="Group_24817" data-name="Group 24817" transform="translate(18.596 20.826)">
      <g id="Group_24816" data-name="Group 24816">
        <path id="Path_30607" data-name="Path 30607" d="M264.94,280.61a4.018,4.018,0,1,0,4.018,4.018A4.023,4.023,0,0,0,264.94,280.61Zm0,5.844a1.826,1.826,0,1,1,1.826-1.826A1.828,1.828,0,0,1,264.94,286.454Z" transform="translate(-260.922 -280.61)" fill="#262d37" stroke="#fff" stroke-width="1"/>
      </g>
    </g>
  </g>
</svg>