<svg xmlns="http://www.w3.org/2000/svg" width="45.898" height="38.543" viewBox="0 0 45.898 38.543">
  <g id="bread" transform="translate(0.25 0.293)">
    <path id="Path_30590" data-name="Path 30590" d="M39.319,229.846a1.715,1.715,0,0,0-1.935-.066,22.438,22.438,0,0,0-2.571-1.469,1.662,1.662,0,0,0-1-1.656,27.136,27.136,0,0,0-5.622-1.627,1.7,1.7,0,0,0-1.753.872,31.473,31.473,0,0,0-3.736-.22,31.887,31.887,0,0,0-3.788.223,1.7,1.7,0,0,0-1.751-.873,27.227,27.227,0,0,0-5.414,1.539,1.655,1.655,0,0,0-1.016,1.647,22.356,22.356,0,0,0-2.61,1.463,1.719,1.719,0,0,0-1.941.053C2.425,232.632,0,236.588,0,239.811c0,4.8,11.4,6.943,22.7,6.943a74.246,74.246,0,0,0,13.133-1.033.665.665,0,0,0-.243-1.308,72.91,72.91,0,0,1-12.89,1.01,61.772,61.772,0,0,1-15.405-1.669c-3.79-1.034-5.964-2.471-5.964-3.944,0-2.146,1.483-5.8,5.662-9.027.248-.191.379,0,.5.161a10.863,10.863,0,0,0,3.52,4.474.673.673,0,0,0,1.051-.542v-6.8a.292.292,0,0,1,.183-.272,25.894,25.894,0,0,1,5.15-1.463.3.3,0,0,1,.36.253c.1.807.253,1.621.439,2.419a.665.665,0,0,0,1.3-.3c-.116-.5-.214-1-.3-1.5a30.616,30.616,0,0,1,3.51-.2,30.2,30.2,0,0,1,3.454.2,23.731,23.731,0,0,1-3.455,9,22.158,22.158,0,0,1-2.188-4.217.665.665,0,0,0-1.238.487,21.159,21.159,0,0,0,2.913,5.288.665.665,0,0,0,1.026,0,23.5,23.5,0,0,0,4.336-10.848.654.654,0,0,0,.057-.366.3.3,0,0,1,.351-.216,25.807,25.807,0,0,1,5.347,1.546.293.293,0,0,1,.181.272v6.722a.673.673,0,0,0,1.051.541A10.843,10.843,0,0,0,38.03,231a.308.308,0,0,1,.468-.1c3.383,2.651,5.569,6.152,5.569,8.918,0,1-.843,2.465-4.856,3.725a.666.666,0,0,0,.4,1.269c3.841-1.206,5.788-2.886,5.788-4.994C45.4,236.652,43.012,232.74,39.319,229.846Zm-30.44.926A20.782,20.782,0,0,1,10.73,229.7v3.738A10.138,10.138,0,0,1,8.878,230.773Zm25.934,2.664V229.8a20.874,20.874,0,0,1,1.8,1.067A10.09,10.09,0,0,1,34.813,233.437Z" transform="translate(0 -208.754)" fill="#262d37" stroke="#fff" stroke-width="0.5"/>
    <path id="Path_30591" data-name="Path 30591" d="M328.141,80.542a4.808,4.808,0,0,1-1.311,2.679.665.665,0,0,0,.963.918,6.186,6.186,0,0,0,1.679-3.6,2.731,2.731,0,0,0-.931-2.028,1.444,1.444,0,0,1-.564-1.11,4.807,4.807,0,0,1,1.312-2.679.665.665,0,0,0-.963-.917,6.184,6.184,0,0,0-1.679,3.6,2.731,2.731,0,0,0,.931,2.028A1.444,1.444,0,0,1,328.141,80.542Z" transform="translate(-297.681 -70.774)" fill="#262d37" stroke="#fff" stroke-width="0.5"/>
    <path id="Path_30592" data-name="Path 30592" d="M154.9,80.542a4.808,4.808,0,0,1-1.311,2.679.665.665,0,0,0,.963.918,6.186,6.186,0,0,0,1.679-3.6,2.731,2.731,0,0,0-.931-2.028,1.444,1.444,0,0,1-.564-1.11,4.807,4.807,0,0,1,1.312-2.679.665.665,0,0,0-.963-.917,6.184,6.184,0,0,0-1.679,3.6,2.731,2.731,0,0,0,.931,2.028A1.444,1.444,0,0,1,154.9,80.542Z" transform="translate(-139.804 -70.774)" fill="#262d37" stroke="#fff" stroke-width="0.5"/>
    <path id="Path_30593" data-name="Path 30593" d="M240.991,48.658a4.808,4.808,0,0,1-1.311,2.679.665.665,0,0,0,.963.918,6.186,6.186,0,0,0,1.679-3.6,2.731,2.731,0,0,0-.931-2.028,1.444,1.444,0,0,1-.564-1.11,4.807,4.807,0,0,1,1.312-2.679.665.665,0,0,0-.963-.917,6.184,6.184,0,0,0-1.679,3.6,2.731,2.731,0,0,0,.931,2.028,1.444,1.444,0,0,1,.564,1.11Z" transform="translate(-218.259 -41.717)" fill="#262d37" stroke="#fff" stroke-width="0.5"/>
  </g>
</svg>