<svg xmlns="http://www.w3.org/2000/svg" width="100.731" height="100" viewBox="0 0 100.731 100"><g transform="translate(-1637 -2115)"><circle cx="35.714" cy="35.714" r="35.714" transform="translate(1637 2115)" fill="#feecee"/><g transform="translate(1637 2115)"><path d="M127.264,297.411l16.457-7.774a7.609,7.609,0,0,1,10.055,3.05l-33.451,21.638a22.984,22.984,0,0,1-14.352,1.625L82.9,309.475a8.542,8.542,0,0,0-6.339.694l-4.825,2.581.65-23.529.191,0a22.572,22.572,0,0,1,23.458-1.641l1.381.714a16.115,16.115,0,0,0,6.974,1.8l13.561.375a10.088,10.088,0,0,1,9.309,6.937Zm0,0" transform="translate(-54.921 -218.308)" fill="#fff8f0"/><path d="M185.127,34.438a8.775,8.775,0,0,1,0,9.966,8.8,8.8,0,0,0-1.554,4.994c0,.161,0,.325.015.487l0,.066a9.011,9.011,0,0,1-5.153,8.578l-.036.016a9.227,9.227,0,0,0-4.156,4l-.016.033a9.479,9.479,0,0,1-8.918,4.956l-.065,0a9.675,9.675,0,0,0-5.7,1.482,9.716,9.716,0,0,1-10.36,0,9.663,9.663,0,0,0-5.167-1.5c-.176,0-.354,0-.53.014l-.065,0a9.477,9.477,0,0,1-8.918-4.956l-.016-.033a9.234,9.234,0,0,0-4.157-4l-.036-.016a9.006,9.006,0,0,1-5.153-8.578l.005-.066a8.809,8.809,0,0,0-1.54-5.481,8.765,8.765,0,0,1,0-9.966,8.8,8.8,0,0,0,1.554-4.994c0-.161,0-.325-.014-.487l-.005-.063a9,9,0,0,1,5.153-8.578l.036-.016a9.25,9.25,0,0,0,4.157-4l.016-.032a9.48,9.48,0,0,1,8.918-4.959l.065,0a9.7,9.7,0,0,0,5.7-1.482,9.72,9.72,0,0,1,10.36,0,9.7,9.7,0,0,0,5.7,1.482l.065,0a9.483,9.483,0,0,1,8.918,4.959l.016.032a9.243,9.243,0,0,0,4.156,4l.036.016a9.006,9.006,0,0,1,5.153,8.578l0,.063a8.8,8.8,0,0,0,1.539,5.481ZM170.888,48.774c0-4.18-2.869-7.568-6.407-7.568s-6.407,3.387-6.407,7.568,2.867,7.57,6.407,7.57S170.888,52.957,170.888,48.774Zm-20.22-18.706c0-4.179-2.869-7.567-6.407-7.567s-6.407,3.387-6.407,7.567,2.87,7.57,6.407,7.57S150.668,34.251,150.668,30.069Zm0,0" transform="translate(-93.447 -6.463)" fill="#f12441"/><path d="M282.088,148.547c3.538,0,6.407,3.387,6.407,7.568s-2.869,7.57-6.407,7.57-6.407-3.387-6.407-7.57S278.547,148.547,282.088,148.547Zm0,0" transform="translate(-211.052 -113.803)" fill="#fff8f0"/><path d="M195.838,68.758c3.537,0,6.407,3.387,6.407,7.567s-2.869,7.57-6.407,7.57-6.407-3.388-6.407-7.57S192.3,68.758,195.838,68.758Zm0,0" transform="translate(-145.022 -52.719)" fill="#fff8f0"/><path d="M22.942,303.94l-.072,2.652L8,306.182l.9-32.635,14.873.408-.178,6.457Zm0,0" transform="translate(-6.125 -209.499)" fill="#f12441"/><g transform="translate(0)"><path d="M117.159,43.647l0,.051a.1.1,0,0,1,0,.024,10.877,10.877,0,0,0,6.205,10.371l.026.012.016.007a7.309,7.309,0,0,1,3.3,3.171l.007.015c.005.009.01.019.015.028a11.362,11.362,0,0,0,10.661,5.958l.049,0h.035a7.806,7.806,0,0,1,4.6,1.2,11.594,11.594,0,0,0,12.361,0,7.756,7.756,0,0,1,4.592-1.2l.037,0,.049,0a11.357,11.357,0,0,0,10.661-5.958l.015-.028.007-.015a7.292,7.292,0,0,1,3.285-3.162l.035-.016.027-.013a10.881,10.881,0,0,0,6.205-10.371l0-.03,0-.05c-.006-.122-.01-.245-.01-.366a6.888,6.888,0,0,1,1.222-3.926,10.652,10.652,0,0,0,0-12.1,6.959,6.959,0,0,1-1.213-4.295l0-.043c0-.012,0-.023,0-.036a10.876,10.876,0,0,0-6.206-10.37l-.03-.015-.023-.01a7.321,7.321,0,0,1-3.292-3.164l-.022-.044a11.354,11.354,0,0,0-10.678-5.959l-.035,0-.048,0a7.792,7.792,0,0,1-4.58-1.2,11.594,11.594,0,0,0-12.36,0,7.787,7.787,0,0,1-4.581,1.2l-.048,0-.035,0a11.357,11.357,0,0,0-10.678,5.959l-.022.044a7.319,7.319,0,0,1-3.292,3.165l-.024.01-.029.015a10.87,10.87,0,0,0-6.206,10.371.148.148,0,0,0,0,.028l0,.05c.007.121.01.245.01.365a6.89,6.89,0,0,1-1.222,3.928,10.639,10.639,0,0,0,0,12.1,6.97,6.97,0,0,1,1.212,4.3Zm1.875-14.265a10.629,10.629,0,0,0,1.886-6.059c0-.2-.005-.4-.017-.6a.134.134,0,0,0,0-.027l0-.047a7.13,7.13,0,0,1,4.086-6.765L125,15.88l.024-.011a11.045,11.045,0,0,0,5-4.811l.018-.037.008-.016a7.6,7.6,0,0,1,7.135-3.944l.048,0,.033,0a11.506,11.506,0,0,0,6.8-1.768,7.842,7.842,0,0,1,8.357,0,11.511,11.511,0,0,0,6.8,1.767l.034,0,.047,0A7.6,7.6,0,0,1,166.437,11l.008.016.019.038a11.047,11.047,0,0,0,5,4.81l.023.011.02.009a7.135,7.135,0,0,1,4.087,6.761l0,.045c0,.013,0,.026,0,.038a10.732,10.732,0,0,0,1.869,6.65,6.9,6.9,0,0,1,0,7.835,10.622,10.622,0,0,0-1.886,6.059c0,.2.005.4.017.6,0,.009,0,.019,0,.028l0,.049a7.141,7.141,0,0,1-4.092,6.766l-.038.017a11.042,11.042,0,0,0-5,4.812c-.006.011-.012.023-.017.034l-.009.017a7.6,7.6,0,0,1-7.15,3.942l-.034,0-.048,0a11.471,11.471,0,0,0-6.779,1.768,7.841,7.841,0,0,1-8.358,0A11.524,11.524,0,0,0,137.9,59.52c-.2,0-.409.005-.612.016l-.049,0a.233.233,0,0,0-.036,0,7.6,7.6,0,0,1-7.15-3.942l-.008-.017-.017-.034a11.059,11.059,0,0,0-5.019-4.821l-.022-.01a7.136,7.136,0,0,1-4.089-6.767l0-.052c0-.009,0-.018,0-.027a10.727,10.727,0,0,0-1.87-6.651,6.888,6.888,0,0,1,0-7.834Zm0,0" transform="translate(-87.322 -0.341)" fill="#262d37"/><path d="M205.383,96.035a1.874,1.874,0,0,0,2.583-.6l22.217-35.591A1.875,1.875,0,1,0,227,57.86L204.785,93.451a1.875,1.875,0,0,0,.6,2.584Zm0,0" transform="translate(-156.559 -43.688)" fill="#262d37"/><path d="M189.713,79.646c4.567,0,8.282-4.237,8.282-9.446s-3.715-9.442-8.282-9.442-8.283,4.235-8.283,9.442S185.145,79.646,189.713,79.646Zm0-15.137c2.5,0,4.531,2.553,4.531,5.691s-2.033,5.7-4.531,5.7-4.532-2.556-4.532-5.7S187.214,64.509,189.713,64.509Zm0,0" transform="translate(-138.898 -46.594)" fill="#262d37"/><path d="M267.68,149.99c0,5.208,3.715,9.445,8.283,9.445s8.282-4.237,8.282-9.445-3.715-9.443-8.282-9.443S267.68,144.783,267.68,149.99Zm12.814,0c0,3.139-2.033,5.694-4.531,5.694s-4.532-2.556-4.532-5.694,2.033-5.692,4.532-5.692S280.494,146.851,280.494,149.99Zm0,0" transform="translate(-204.928 -107.678)" fill="#262d37"/><path d="M100.488,276.831a9.473,9.473,0,0,0-12.509-3.813l-14.688,6.938a11.991,11.991,0,0,0-10.205-6.289l-13.563-.375a14.332,14.332,0,0,1-6.163-1.591l-1.38-.715a24.337,24.337,0,0,0-22.546.024l.086-3.127a1.875,1.875,0,0,0-1.823-1.927l-14.872-.407H2.773A1.875,1.875,0,0,0,.9,267.371L0,300.006a1.875,1.875,0,0,0,1.822,1.927l14.871.41h.051a1.875,1.875,0,0,0,1.875-1.824l.043-1.562,3.865-2.069a6.636,6.636,0,0,1,4.946-.541l23.071,6.475c.04.011.081.021.121.029a24.66,24.66,0,0,0,5.074.524,24.992,24.992,0,0,0,10.45-2.281,1.84,1.84,0,0,0,.233-.126l33.451-21.638a1.876,1.876,0,0,0,.613-2.5ZM14.943,297.765l-.021.777L3.8,298.235,4.6,269.349l11.123.3Zm49.557-.022a21.238,21.238,0,0,1-13,1.451l-23.009-6.458a10.364,10.364,0,0,0-7.73.846l-1.976,1.057.53-19.206a20.612,20.612,0,0,1,20.942-1.117l1.381.715a18.1,18.1,0,0,0,7.785,2.01l13.562.375a8.227,8.227,0,0,1,7.58,5.65,8.123,8.123,0,0,1,.241.9l-20.2-.556a1.876,1.876,0,0,0-.1,3.75l22.291.612h.052a1.877,1.877,0,0,0,1.875-1.824,12.037,12.037,0,0,0-.182-2.433L89.6,276.4l.044-.021a5.727,5.727,0,0,1,6.48.908Zm0,0" transform="translate(-0.001 -203.375)" fill="#262d37"/></g></g></g></svg>