<svg xmlns="http://www.w3.org/2000/svg" width="99.414" height="100" viewBox="0 0 99.414 100"><g transform="translate(-254 -2115)"><circle cx="35.714" cy="35.714" r="35.714" transform="translate(254 2115)" fill="#feecee"/><g transform="translate(254 2115)"><g transform="translate(2.007 2.003)"><path d="M374.393,116.846l3.94,2.108,1.614.864a3.347,3.347,0,0,0,.359.165,3.374,3.374,0,0,0,2.831-6.114l-.728-.392-1.865-1-.335-.182-1.535-.818-1.563-.842-1.66-.886-.847-.455a3.377,3.377,0,0,0-3.189,5.955l.063.034Zm0,0" transform="translate(-299.445 -89.633)" fill="#ffe6cc" fill-rule="evenodd"/><path d="M402.641,32.1l1.535.818.336.182,1.865,1,10.306-15.234a5.445,5.445,0,0,0-.949-6.812,5.843,5.843,0,0,0-1.438-1.08,5.9,5.9,0,0,0-7.095,1.08,4.54,4.54,0,0,0-.8,1.307l-6.981,17.012,1.66.887Zm0,0" transform="translate(-323.413 -10.257)" fill="#f12441" fill-rule="evenodd"/><path d="M74.608,332.8c22.853,0,31.067-11.416,31.067-28.861v-6.6c0-2.176-1.5-5.546-6.168-5.546H16.447a6.471,6.471,0,0,0-4.156,1.29,5.573,5.573,0,0,0-2.018,4.256v6.6a37.609,37.609,0,0,0,2.018,12.973c3.644,9.909,12.518,15.887,29.055,15.887Zm0,0" transform="translate(-10.274 -236.805)" fill="#f12441" fill-rule="evenodd"/><path d="M240.441,305.953c0,6.66,7.959,6.541,8.874,1.768a3.676,3.676,0,0,0,.069-.517,5.406,5.406,0,0,0,.005-.8c.267-3.687,3.695-4.04,5.577-2.461a3.343,3.343,0,0,1,1.216,2.546,3,3,0,0,0,.8,2.04c1.881,2.08,6.418,1.892,6.418-2.921V291.793H240.441Zm0,0" transform="translate(-195.486 -236.806)" fill="#fff8f0" fill-rule="evenodd"/></g><path d="M91.24,54.984h-8.7a191.15,191.15,0,0,0,2.21-20.431,5.4,5.4,0,0,0,4.1-2.8,5.4,5.4,0,0,0-1.077-6.475l9.162-13.543a6.9,6.9,0,0,0,.935-5.6A8.106,8.106,0,0,0,87.272.465a6.9,6.9,0,0,0-4.135,3.88L76.943,19.438A5.39,5.39,0,0,0,70.827,22.1a5.331,5.331,0,0,0-.409,4.1,5.394,5.394,0,0,0,.637,1.379c-5.705,4.961-18.017,16.1-21.662,22.906a25.427,25.427,0,0,0-1.9,4.5H33.846a2.006,2.006,0,0,0,0,4.012H44.954V71.15a6.977,6.977,0,0,0,3.425,6.411,6.538,6.538,0,0,0,3.135.789,6.647,6.647,0,0,0,3.577-1.033,6.19,6.19,0,0,0,2.829-5.685c.14-1.4.895-1.378,1.185-1.37A1.577,1.577,0,0,1,60.7,71.712C60.718,74.979,63.683,77,66.428,77h.011c2.644-.005,5.489-1.944,5.489-6.187V59H91.24c4.045,0,4.162,3.177,4.162,3.539v6.6c0,8.758-2.092,15.16-6.394,19.57-4.713,4.833-12.34,7.283-22.667,7.283H33.079c-10.329,0-17.956-2.451-22.671-7.283-4.3-4.411-6.4-10.813-6.4-19.57v-6.6c0-.362.117-3.539,4.168-3.539H17.7a2.007,2.007,0,0,0,0-4.013H8.18c-6,0-8.18,4.517-8.18,7.552v6.6C0,89.614,11.129,100,33.079,100H66.34c21.946,0,33.073-10.385,33.073-30.866v-6.6c0-3.036-2.177-7.552-8.174-7.552Zm-15.988,0c1.815-4.74,3.629-10.236,5.087-14.891-.379,4.551-.971,10.023-1.872,14.891Zm-5.328,0H61.387c3.038-6.358,10.748-16.352,16.106-23.2l1.015.543c-1.57,5.309-4.628,15.269-7.565,22.661ZM86.849,5.866a2.921,2.921,0,0,1,1.78-1.625A4.093,4.093,0,0,1,93.978,7.1a2.924,2.924,0,0,1-.364,2.383L84.321,23.225l-3.766-2.019ZM74.363,24a1.39,1.39,0,0,1,1.224-.719,1.338,1.338,0,0,1,.631.156l.836.449.02.011,7.678,4.115a1.381,1.381,0,0,1,.566,1.848,1.377,1.377,0,0,1-1.861.565l0,0L82.3,29.8,74.92,25.85A1.374,1.374,0,0,1,74.363,24ZM52.93,52.375C55.59,47.413,64.356,38.794,72.549,31.6,66.62,39.228,59.457,48.8,57.015,54.984H51.733a22.653,22.653,0,0,1,1.2-2.609ZM67.916,70.809c0,1.442-.5,2.174-1.485,2.176h0c-.7,0-1.716-.463-1.72-1.3a.186.186,0,0,0,0-.021,5.571,5.571,0,0,0-5.489-5.412c-2.453-.069-5.047,1.514-5.312,5.212a1.926,1.926,0,0,0,0,.282,2.231,2.231,0,0,1-.98,2.195,2.641,2.641,0,0,1-2.622.1,3.125,3.125,0,0,1-1.338-2.891V59H67.915V70.809Zm0,0" transform="translate(0 0.001)" fill="#262d37"/><path d="M123.7,285.535h.04a2.006,2.006,0,1,0,0-4.012h-.04a2.006,2.006,0,1,0,0,4.012Zm0,0" transform="translate(-97.924 -226.538)" fill="#262d37"/></g></g></svg>